ffmpeg started on 2026-04-07 at 22:01:33
Report written to "ffmpeg-20260407-220133.log"
Log level: 32
Command line:
/opt/homebrew/bin/ffmpeg -y -loglevel repeat+info -i file:/Users/sudiptabag/Downloads/test1//Top_Watches_of_Top_YouTubers_Best_watch_collection_India.f136.mp4 -i file:/Users/sudiptabag/Downloads/test1//Top_Watches_of_Top_YouTubers_Best_watch_collection_India.f140.m4a -c copy -map 0:v:0 -map 1:a:0 -movflags +faststart -c:v h264_videotoolbox -b:v 8M file:/Users/sudiptabag/Downloads/test1//Top_Watches_of_Top_YouTubers_Best_watch_collection_India.temp.mp4
ffmpeg version 8.1 Copyright (c) 2000-2026 the FFmpeg developers
  built with Apple clang version 21.0.0 (clang-2100.0.123.102)
  configuration: --prefix=/opt/homebrew/Cellar/ffmpeg/8.1 --enable-shared --enable-pthreads --enable-version3 --cc=clang --host-cflags= --host-ldflags= --enable-ffplay --enable-gpl --enable-libsvtav1 --enable-libopus --enable-libx264 --enable-libmp3lame --enable-libdav1d --enable-libvmaf --enable-libvpx --enable-libx265 --enable-openssl --enable-videotoolbox --enable-audiotoolbox --enable-neon
  libavutil      60. 26.100 / 60. 26.100
  libavcodec     62. 28.100 / 62. 28.100
  libavformat    62. 12.100 / 62. 12.100
  libavdevice    62.  3.100 / 62.  3.100
  libavfilter    11. 14.100 / 11. 14.100
  libswscale      9.  5.100 /  9.  5.100
  libswresample   6.  3.100 /  6.  3.100
Input #0, mov,mp4,m4a,3gp,3g2,mj2, from 'file:/Users/sudiptabag/Downloads/test1//Top_Watches_of_Top_YouTubers_Best_watch_collection_India.f136.mp4':
  Metadata:
    major_brand     : dash
    minor_version   : 0
    compatible_brands: iso6avc1mp41
    creation_time   : 2025-07-24T05:13:45.000000Z
  Duration: 00:06:38.17, start: 0.000000, bitrate: 491 kb/s
  Stream #0:0[0x1](und): Video: h264 (Main) (avc1 / 0x31637661), yuv420p(tv, bt709, progressive), 1280x720 [SAR 1:1 DAR 16:9], 959 kb/s, 24 fps, 24 tbr, 12288 tbn (default)
    Metadata:
      creation_time   : 2025-07-24T05:13:45.000000Z
      handler_name    : ISO Media file produced by Google Inc.
Input #1, mov,mp4,m4a,3gp,3g2,mj2, from 'file:/Users/sudiptabag/Downloads/test1//Top_Watches_of_Top_YouTubers_Best_watch_collection_India.f140.m4a':
  Metadata:
    major_brand     : dash
    minor_version   : 0
    compatible_brands: iso6mp41
    creation_time   : 2025-07-24T04:40:24.000000Z
    encoder         : Google
  Duration: 00:06:38.25, start: 0.000000, bitrate: 129 kb/s
  Stream #1:0[0x1](und): Audio: aac (LC) (mp4a / 0x6134706D), 44100 Hz, stereo, fltp, 128 kb/s (default)
    Metadata:
      creation_time   : 2025-07-24T04:40:24.000000Z
      handler_name    : ISO Media file produced by Google Inc.
[vost#0:0 @ 0xadf0f0000] Multiple -codec/-c/-acodec/-vcodec/-scodec/-dcodec options specified for stream 0, only the last option '-codec:v h264_videotoolbox' will be used.
Stream mapping:
  Stream #0:0 -> #0:0 (h264 (native) -> h264 (h264_videotoolbox))
  Stream #1:0 -> #0:1 (copy)
Press [q] to stop, [?] for help
Output #0, mp4, to 'file:/Users/sudiptabag/Downloads/test1//Top_Watches_of_Top_YouTubers_Best_watch_collection_India.temp.mp4':
  Metadata:
    major_brand     : dash
    minor_version   : 0
    compatible_brands: iso6avc1mp41
    encoder         : Lavf62.12.100
  Stream #0:0(und): Video: h264 (avc1 / 0x31637661), yuv420p(tv, bt709, progressive), 1280x720 [SAR 1:1 DAR 16:9], q=2-31, 8000 kb/s, 24 fps, 12288 tbn (default)
    Metadata:
      encoder         : Lavc62.28.100 h264_videotoolbox
      creation_time   : 2025-07-24T05:13:45.000000Z
      handler_name    : ISO Media file produced by Google Inc.
  Stream #0:1(und): Audio: aac (LC) (mp4a / 0x6134706D), 44100 Hz, stereo, fltp, 128 kb/s (default)
    Metadata:
      creation_time   : 2025-07-24T04:40:24.000000Z
      handler_name    : ISO Media file produced by Google Inc.
frame=  132 fps=0.0 q=-0.0 size=    3328KiB time=00:00:05.45 bitrate=4994.8kbits/s speed=10.9x elapsed=0:00:00.50    frame=  327 fps=325 q=-0.0 size=   10752KiB time=00:00:13.58 bitrate=6484.5kbits/s speed=13.5x elapsed=0:00:01.00    frame=  519 fps=344 q=-0.0 size=   18688KiB time=00:00:21.58 bitrate=7093.1kbits/s speed=14.3x elapsed=0:00:01.51    frame=  709 fps=352 q=-0.0 size=   26368KiB time=00:00:29.50 bitrate=7322.3kbits/s speed=14.6x elapsed=0:00:02.01    frame=  903 fps=359 q=-0.0 size=   33280KiB time=00:00:37.58 bitrate=7254.0kbits/s speed=14.9x elapsed=0:00:02.51    frame= 1095 fps=362 q=-0.0 size=   42496KiB time=00:00:45.58 bitrate=7637.2kbits/s speed=15.1x elapsed=0:00:03.02    frame= 1288 fps=365 q=-0.0 size=   49920KiB time=00:00:53.62 bitrate=7626.0kbits/s speed=15.2x elapsed=0:00:03.52    frame= 1483 fps=368 q=-0.0 size=   57856KiB time=00:01:01.75 bitrate=7675.4kbits/s speed=15.3x elapsed=0:00:04.02    frame= 1669 fps=368 q=-0.0 size=   63744KiB time=00:01:09.50 bitrate=7513.5kbits/s speed=15.3x elapsed=0:00:04.52    frame= 1860 fps=369 q=-0.0 size=   70144KiB time=00:01:17.45 bitrate=7418.4kbits/s speed=15.4x elapsed=0:00:05.03    frame= 2036 fps=368 q=-0.0 size=   75776KiB time=00:01:24.79 bitrate=7321.0kbits/s speed=15.3x elapsed=0:00:05.53    frame= 2230 fps=369 q=-0.0 size=   83712KiB time=00:01:32.87 bitrate=7383.8kbits/s speed=15.4x elapsed=0:00:06.04    frame= 2421 fps=370 q=-0.0 size=   89600KiB time=00:01:40.83 bitrate=7279.4kbits/s speed=15.4x elapsed=0:00:06.54    frame= 2616 fps=371 q=-0.0 size=   97536KiB time=00:01:48.95 bitrate=7333.2kbits/s speed=15.5x elapsed=0:00:07.04    frame= 2797 fps=370 q=-0.0 size=  107520KiB time=00:01:56.50 bitrate=7560.6kbits/s speed=15.4x elapsed=0:00:07.54    frame= 2982 fps=370 q=-0.0 size=  120832KiB time=00:02:04.20 bitrate=7969.3kbits/s speed=15.4x elapsed=0:00:08.05    frame= 3174 fps=371 q=-0.0 size=  131072KiB time=00:02:12.20 bitrate=8121.6kbits/s speed=15.4x elapsed=0:00:08.55    frame= 3369 fps=372 q=-0.0 size=  139520KiB time=00:02:20.33 bitrate=8144.5kbits/s speed=15.5x elapsed=0:00:09.06    frame= 3557 fps=372 q=-0.0 size=  145920KiB time=00:02:28.16 bitrate=8067.8kbits/s speed=15.5x elapsed=0:00:09.56    frame= 3754 fps=373 q=-0.0 size=  149760KiB time=00:02:36.37 bitrate=7845.5kbits/s speed=15.5x elapsed=0:00:10.06    frame= 3949 fps=373 q=-0.0 size=  154368KiB time=00:02:44.50 bitrate=7687.4kbits/s speed=15.6x elapsed=0:00:10.57    frame= 4138 fps=374 q=-0.0 size=  166912KiB time=00:02:52.37 bitrate=7932.4kbits/s speed=15.6x elapsed=0:00:11.07    frame= 4330 fps=374 q=-0.0 size=  176384KiB time=00:03:00.37 bitrate=8010.7kbits/s speed=15.6x elapsed=0:00:11.58    frame= 4524 fps=374 q=-0.0 size=  180736KiB time=00:03:08.45 bitrate=7856.3kbits/s speed=15.6x elapsed=0:00:12.08    frame= 4715 fps=375 q=-0.0 size=  187648KiB time=00:03:16.41 bitrate=7826.3kbits/s speed=15.6x elapsed=0:00:12.58    frame= 4903 fps=374 q=-0.0 size=  193024KiB time=00:03:24.25 bitrate=7741.8kbits/s speed=15.6x elapsed=0:00:13.09    frame= 5098 fps=375 q=-0.0 size=  197120KiB time=00:03:32.37 bitrate=7603.6kbits/s speed=15.6x elapsed=0:00:13.59    frame= 5291 fps=375 q=-0.0 size=  204032KiB time=00:03:40.41 bitrate=7583.0kbits/s speed=15.6x elapsed=0:00:14.10    frame= 5486 fps=375 q=-0.0 size=  211200KiB time=00:03:48.54 bitrate=7570.4kbits/s speed=15.6x elapsed=0:00:14.60    frame= 5684 fps=376 q=-0.0 size=  215808KiB time=00:03:56.79 bitrate=7466.1kbits/s speed=15.7x elapsed=0:00:15.11    frame= 5868 fps=376 q=-0.0 size=  230144KiB time=00:04:04.45 bitrate=7712.3kbits/s speed=15.7x elapsed=0:00:15.61    frame= 6052 fps=375 q=-0.0 size=  245248KiB time=00:04:12.12 bitrate=7968.6kbits/s speed=15.6x elapsed=0:00:16.11    frame= 6246 fps=376 q=-0.0 size=  255488KiB time=00:04:20.20 bitrate=8043.4kbits/s speed=15.7x elapsed=0:00:16.62    frame= 6439 fps=376 q=-0.0 size=  263424KiB time=00:04:28.25 bitrate=8044.6kbits/s speed=15.7x elapsed=0:00:17.12    frame= 6639 fps=377 q=-0.0 size=  273152KiB time=00:04:36.58 bitrate=8090.4kbits/s speed=15.7x elapsed=0:00:17.63    frame= 6837 fps=377 q=-0.0 size=  280576KiB time=00:04:44.83 bitrate=8069.6kbits/s speed=15.7x elapsed=0:00:18.13    frame= 7034 fps=377 q=-0.0 size=  289792KiB time=00:04:53.04 bitrate=8101.2kbits/s speed=15.7x elapsed=0:00:18.63    frame= 7232 fps=378 q=-0.0 size=  296960KiB time=00:05:01.29 bitrate=8074.2kbits/s speed=15.7x elapsed=0:00:19.14    frame= 7426 fps=378 q=-0.0 size=  305408KiB time=00:05:09.37 bitrate=8087.0kbits/s speed=15.7x elapsed=0:00:19.64    frame= 7620 fps=378 q=-0.0 size=  313344KiB time=00:05:17.45 bitrate=8085.8kbits/s speed=15.8x elapsed=0:00:20.14    frame= 7819 fps=379 q=-0.0 size=  321536KiB time=00:05:25.75 bitrate=8086.0kbits/s speed=15.8x elapsed=0:00:20.65    frame= 8015 fps=379 q=-0.0 size=  329728KiB time=00:05:33.91 bitrate=8089.2kbits/s speed=15.8x elapsed=0:00:21.15    frame= 8212 fps=379 q=-0.0 size=  338688KiB time=00:05:42.12 bitrate=8109.7kbits/s speed=15.8x elapsed=0:00:21.65    frame= 8404 fps=379 q=-0.0 size=  345344KiB time=00:05:50.12 bitrate=8080.1kbits/s speed=15.8x elapsed=0:00:22.15    frame= 8593 fps=379 q=-0.0 size=  352256KiB time=00:05:58.00 bitrate=8060.6kbits/s speed=15.8x elapsed=0:00:22.66    frame= 8789 fps=379 q=-0.0 size=  358400KiB time=00:06:06.16 bitrate=8018.2kbits/s speed=15.8x elapsed=0:00:23.16    frame= 8979 fps=379 q=-0.0 size=  364544KiB time=00:06:14.08 bitrate=7983.1kbits/s speed=15.8x elapsed=0:00:23.66    frame= 9169 fps=379 q=-0.0 size=  376064KiB time=00:06:22.00 bitrate=8064.7kbits/s speed=15.8x elapsed=0:00:24.17    frame= 9363 fps=379 q=-0.0 size=  385024KiB time=00:06:30.08 bitrate=8085.8kbits/s speed=15.8x elapsed=0:00:24.67    [mp4 @ 0xadf01fc00] Starting second pass: moving the moov atom to the beginning of the file
[out#0/mp4 @ 0xadf0109c0] video:386754KiB audio:6223KiB subtitle:0KiB other streams:0KiB global headers:0KiB muxing overhead: 0.058418%
frame= 9556 fps=375 q=-0.0 Lsize=  393206KiB time=00:06:38.12 bitrate=8090.8kbits/s speed=15.6x elapsed=0:00:25.47    
